<svg width="24.000000" height="24.000000" viewBox="0 0 24 24" fill="none" xmlns="http://www.w3.org/2000/svg" xmlns:xlink="http://www.w3.org/1999/xlink">
	<desc>
			Created with Pixso.
	</desc>
	<defs>
		<clipPath id="clip10112_47">
			<rect id="instagram" width="24.000000" height="24.000000" fill="white" fill-opacity="0"/>
		</clipPath>
	</defs>
	<rect id="instagram" width="24.000000" height="24.000000" fill="#FFFFFF" fill-opacity="0"/>
	<g clip-path="url(#clip10112_47)">
		<path id="Vector" d="M16.5 0L7.5 0C3.35 0 0 3.35 0 7.5L0 16.5C0 20.64 3.35 24 7.5 24L16.5 24C20.64 24 24 20.64 24 16.5L24 7.5C24 3.35 20.64 0 16.5 0ZM21.75 16.5C21.75 19.39 19.39 21.75 16.5 21.75L7.5 21.75C4.6 21.75 2.25 19.39 2.25 16.5L2.25 7.5C2.25 4.6 4.6 2.25 7.5 2.25L16.5 2.25C19.39 2.25 21.75 4.6 21.75 7.5L21.75 16.5Z" fill="#FFFFFF" fill-opacity="1.000000" fill-rule="nonzero"/>
		<path id="Vector" d="M12 6C8.68 6 6 8.68 6 12C6 15.31 8.68 18 12 18C15.31 18 18 15.31 18 12C18 8.68 15.31 6 12 6ZM12 15.75C9.93 15.75 8.25 14.06 8.25 12C8.25 9.93 9.93 8.25 12 8.25C14.06 8.25 15.75 9.93 15.75 12C15.75 14.06 14.06 15.75 12 15.75Z" fill="#FFFFFF" fill-opacity="1.000000" fill-rule="nonzero"/>
		<path id="Vector" d="M19.24 5.55C19.24 5.99 18.88 6.34 18.44 6.34C18 6.34 17.64 5.99 17.64 5.55C17.64 5.1 18 4.75 18.44 4.75C18.88 4.75 19.24 5.1 19.24 5.55Z" fill="#FFFFFF" fill-opacity="1.000000" fill-rule="evenodd"/>
	</g>
</svg>
