<svg width="24.000000" height="24.000000" viewBox="0 0 24 24" fill="none" xmlns="http://www.w3.org/2000/svg" xmlns:xlink="http://www.w3.org/1999/xlink">
	<desc>
			Created with Pixso.
	</desc>
	<defs>
		<clipPath id="clip10112_31">
			<rect id="vk" width="24.000000" height="24.000000" fill="white" fill-opacity="0"/>
		</clipPath>
	</defs>
	<rect id="vk" width="24.000000" height="24.000000" fill="#FFFFFF" fill-opacity="0"/>
	<g clip-path="url(#clip10112_31)">
		<path id="Vector" d="M21.36 14.75C21.36 14.75 23.3 16.67 23.78 17.56C23.79 17.57 23.79 17.58 23.8 17.6C24 17.93 24.04 18.18 23.95 18.37C23.79 18.69 23.24 18.84 23.05 18.86L19.62 18.86C19.38 18.86 18.89 18.79 18.28 18.38C17.82 18.05 17.36 17.52 16.91 17C16.25 16.23 15.67 15.56 15.09 15.56C15.02 15.56 14.95 15.57 14.88 15.6C14.44 15.74 13.88 16.36 13.88 18.04C13.88 18.56 13.46 18.86 13.17 18.86L11.6 18.86C11.07 18.86 8.28 18.67 5.81 16.06C2.78 12.87 0.06 6.48 0.04 6.42C-0.13 6 0.22 5.78 0.61 5.78L4.07 5.78C4.54 5.78 4.69 6.06 4.79 6.31C4.91 6.6 5.37 7.76 6.11 9.06C7.32 11.17 8.06 12.03 8.65 12.03C8.76 12.03 8.87 12 8.97 11.95C9.74 11.52 9.6 8.76 9.56 8.19C9.56 8.08 9.56 6.96 9.16 6.42C8.88 6.03 8.4 5.88 8.1 5.83C8.18 5.71 8.35 5.54 8.56 5.44C9.09 5.17 10.05 5.13 11 5.13L11.52 5.13C12.55 5.15 12.82 5.21 13.19 5.31C13.95 5.49 13.96 5.98 13.89 7.64C13.88 8.12 13.86 8.65 13.86 9.28C13.86 9.42 13.85 9.57 13.85 9.72C13.83 10.57 13.8 11.53 14.4 11.93C14.48 11.98 14.57 12 14.66 12C14.87 12 15.49 12 17.19 9.09C17.93 7.81 18.51 6.29 18.55 6.18C18.58 6.11 18.68 5.94 18.81 5.86C18.89 5.82 18.99 5.79 19.09 5.8L23.16 5.8C23.61 5.8 23.91 5.86 23.97 6.03C24.06 6.3 23.95 7.13 22.09 9.65C21.77 10.07 21.5 10.43 21.26 10.75C19.57 12.96 19.57 13.07 21.36 14.75Z" fill="#FFFFFF" fill-opacity="1.000000" fill-rule="evenodd"/>
	</g>
</svg>
