<svg width="21.000000" height="15.000000" viewBox="0 0 21 15" fill="none" xmlns="http://www.w3.org/2000/svg" xmlns:xlink="http://www.w3.org/1999/xlink">
	<desc>
			Created with Pixso.
	</desc>
	<defs/>
	<path id="Vector" d="M20.05 1.94C19.93 1.5 19.7 1.09 19.37 0.77C19.05 0.44 18.64 0.21 18.2 0.09C16.57 -0.35 10 -0.35 10 -0.35C10 -0.35 3.43 -0.35 1.79 0.09C1.35 0.21 0.94 0.44 0.62 0.77C0.29 1.09 0.06 1.5 -0.06 1.94C-0.37 3.61 -0.52 5.3 -0.5 7C-0.52 8.69 -0.37 10.38 -0.06 12.05C0.06 12.49 0.29 12.9 0.62 13.22C0.94 13.55 1.35 13.78 1.79 13.9C3.43 14.35 10 14.35 10 14.35C10 14.35 16.57 14.35 18.2 13.9C18.64 13.78 19.05 13.55 19.37 13.22C19.7 12.9 19.93 12.49 20.05 12.05C20.36 10.38 20.51 8.69 20.5 7C20.51 5.3 20.36 3.61 20.05 1.94ZM7.89 10.15L7.89 3.85L13.35 7L7.89 10.15Z" fill="#FFFFFF" fill-opacity="1.000000" fill-rule="nonzero"/>
</svg>
